<svg width="24" height="20" viewBox="0 0 24 20" fill="none" xmlns="http://www.w3.org/2000/svg">
<path d="M23.3333 9.98464C23.3252 9.1078 22.9719 8.26947 22.35 7.65131L15.2 0.484654C14.8877 0.174236 14.4653 0 14.025 0C13.5847 0 13.1623 0.174236 12.85 0.484654C12.6938 0.639593 12.5698 0.823927 12.4852 1.02703C12.4006 1.23012 12.357 1.44797 12.357 1.66799C12.357 1.88801 12.4006 2.10585 12.4852 2.30895C12.5698 2.51204 12.6938 2.69638 12.85 2.85132L18.3333 8.31798H1.66667C1.22464 8.31798 0.800716 8.49357 0.488156 8.80613C0.175595 9.11869 0 9.54262 0 9.98464C0 10.4267 0.175595 10.8506 0.488156 11.1632C0.800716 11.4757 1.22464 11.6513 1.66667 11.6513H18.3333L12.85 17.1346C12.5362 17.4463 12.359 17.8698 12.3574 18.3121C12.3558 18.7543 12.53 19.1791 12.8417 19.493C13.1533 19.8068 13.5768 19.984 14.0191 19.9856C14.4614 19.9871 14.8862 19.8129 15.2 19.5013L22.35 12.3346C22.976 11.7124 23.3296 10.8673 23.3333 9.98464V9.98464Z" fill="#D4F3E7"/>
</svg>
